# This file uses centimeters as units for non-parametric coordinates.

mtllib bossroom.mtl
g default
v -1.433289 1.323792 2.584793
v 1.433289 1.323792 2.584793
v -1.433289 0.500000 -4.884216
v 1.433289 0.500000 -4.884216
v 1.870542 0.500000 -4.884216
v 1.870542 1.323792 2.584793
v -1.870542 1.323792 2.584793
v -1.870542 0.500000 -4.884216
v 1.493063 1.492844 2.584793
v 1.493063 0.653120 -4.884216
v 1.810768 1.492844 2.584793
v 1.810768 0.653120 -4.884216
v -1.493063 1.492844 2.584793
v -1.493063 0.653120 -4.884216
v -1.810768 0.653120 -4.884216
v -1.810768 1.492844 2.584793
v 1.870542 -0.086688 2.584793
v 1.870542 -0.086688 -4.884216
v -1.870542 -0.086688 2.584793
v -1.870542 -0.086688 -4.884216
v -1.433289 -0.086688 2.584793
v 1.433289 -0.086688 2.584793
v -1.433289 -0.086688 -4.884216
v 1.433289 -0.086688 -4.884216
v -1.433289 0.691006 1.962073
v -1.433289 0.547665 1.698502
v -1.433289 0.500000 1.437153
v -1.433289 0.913637 2.209329
v -1.493200 0.692050 1.668207
v -1.493600 0.805781 1.921576
v -1.494232 0.985373 2.133418
v -1.493063 0.653120 1.393226
v -1.810631 0.692050 1.668207
v -1.810231 0.805781 1.921576
v -1.809598 0.985373 2.133418
v -1.810768 0.653120 1.393226
v -1.870541 0.547665 1.698502
v -1.870541 0.691006 1.962073
v -1.870541 0.913637 2.209329
v -1.870541 0.500000 1.437153
v -1.870542 -0.086688 2.227574
v -1.870542 -0.086688 1.967786
v -1.870541 -0.086688 1.707997
v -1.870541 -0.086688 1.448209
v 1.433289 0.547665 1.698502
v 1.433289 0.691006 1.962073
v 1.433289 0.913637 2.209329
v 1.433289 0.500000 1.437153
v 1.493600 0.805781 1.921576
v 1.493200 0.692050 1.668207
v 1.493063 0.653120 1.393226
v 1.494232 0.985373 2.133418
v 1.810231 0.805781 1.921576
v 1.810631 0.692050 1.668207
v 1.810768 0.653120 1.393226
v 1.809598 0.985373 2.133418
v 1.870541 0.691006 1.962073
v 1.870541 0.547665 1.698502
v 1.870541 0.500000 1.437153
v 1.870541 0.913637 2.209329
v 1.870541 -0.086688 1.448209
v 1.870541 -0.086688 1.707997
v 1.870542 -0.086688 1.967786
v 1.870542 -0.086688 2.227574
v -1.433289 -0.086688 1.448209
v -1.433289 -0.086688 1.707997
v -1.433289 -0.086688 1.967786
v -1.433289 -0.086688 2.227574
v 1.433289 -0.086688 2.227574
v 1.433289 -0.086688 1.967786
v 1.433289 -0.086688 1.707997
v 1.433289 -0.086688 1.448209
v 1.365517 1.335420 2.584793
v 1.460175 1.563339 2.584793
v 1.365517 1.335420 2.884217
v 1.460175 1.563339 2.884217
v 1.938313 1.335420 2.584793
v 1.843656 1.563339 2.584793
v 1.843656 1.563339 2.884217
v 1.938313 1.335420 2.884217
v 1.940309 -0.086688 2.584793
v 1.940309 -0.086688 2.884217
v 1.363522 -0.086688 2.584793
v 1.363522 -0.086688 2.884217
v -1.365517 1.335420 2.584793
v -1.460175 1.563339 2.584793
v -1.460175 1.563339 2.884217
v -1.365517 1.335420 2.884217
v -1.938313 1.335420 2.584793
v -1.843656 1.563339 2.584793
v -1.938313 1.335420 2.884217
v -1.843656 1.563339 2.884217
v -1.940309 -0.086688 2.584793
v -1.940309 -0.086688 2.884217
v -1.363522 -0.086688 2.584793
v -1.363522 -0.086688 2.884217
vt 0.178801 0.202541
vt 0.181874 0.165610
vt 0.256632 0.193712
vt 0.250910 0.216208
vt 0.179418 0.124394
vt 0.267408 0.170138
vt 0.173647 0.080947
vt 0.282680 0.145600
vt 0.161446 0.121701
vt 0.159164 0.082913
vt 0.161143 0.163435
vt 0.159580 0.206509
vt 0.144811 0.122050
vt 0.144182 0.083431
vt 0.145306 0.163749
vt 0.145759 0.206520
vt 0.127149 0.125314
vt 0.129822 0.082691
vt 0.124796 0.165886
vt 0.126503 0.202607
vt 0.039048 0.170370
vt 0.025366 0.147649
vt 0.048345 0.192950
vt 0.053751 0.215445
vt 0.433624 0.918024
vt 0.436668 0.875381
vt 0.524847 0.831674
vt 0.538549 0.854893
vt 0.439041 0.834797
vt 0.515270 0.808713
vt 0.437361 0.798018
vt 0.509295 0.785924
vt 0.418576 0.836798
vt 0.418056 0.794068
vt 0.419141 0.878412
vt 0.419600 0.916895
vt 0.402745 0.837048
vt 0.404206 0.794127
vt 0.402638 0.878604
vt 0.405017 0.917159
vt 0.381997 0.834901
vt 0.384953 0.798062
vt 0.384752 0.875884
vt 0.390928 0.918706
vt 0.306557 0.807753
vt 0.312615 0.785080
vt 0.295645 0.831595
vt 0.280559 0.856610
vt 0.418943 0.003342
vt 0.405250 0.003360
vt 0.555292 0.234344
vt 0.555515 0.213430
vt 0.438072 0.003295
vt 0.386123 0.003391
vt 0.549527 0.257319
vt 0.552272 0.190881
vt 0.313536 0.003500
vt 0.000938 0.115112
vt 0.176636 0.997607
vt 0.157512 0.997598
vt 0.143820 0.997612
vt 0.124694 0.997643
vt 0.052059 0.997666
vt 0.302140 0.613248
vt 0.301569 0.589398
vt 0.300918 0.567518
vt 0.303669 0.544827
vt 0.305458 0.367908
vt 0.532552 0.444026
vt 0.562533 0.888261
vt 0.249213 0.997620
vt 0.511765 0.003138
vt 0.296075 0.586305
vt 0.299191 0.611868
vt 0.003070 0.491226
vt 0.010656 0.511900
vt 0.300765 0.545862
vt 0.295283 0.572049
vt 0.264044 0.573671
vt 0.048974 0.491226
vt 0.552713 0.256485
vt 0.561747 0.229879
vt 0.596300 0.228238
vt 0.048974 0.676168
vt 0.561610 0.216406
vt 0.555371 0.191634
vt 0.003070 0.676168
vt 0.010655 0.696842
vt 0.302422 0.367823
vt 0.049134 0.362233
vt 0.522797 0.020747
vt 0.558855 0.013716
vt 0.535866 0.444307
vt 0.049134 0.547174
vt 0.299387 0.788974
vt 0.262030 0.789119
vt 0.432590 0.983889
vt 0.302422 0.788962
vt 0.165122 0.014668
vt 0.309079 0.109878
vt 0.128058 0.017500
vt 0.519868 0.021318
vt 0.395037 0.984883
vt 0.258361 0.891269
vt 0.151383 0.001318
vt 0.139642 0.002349
vt 0.420162 0.998744
vt 0.408172 0.999002
vt 0.593521 0.257513
vt 0.576741 0.447735
vt 0.591832 0.185455
vt 0.002910 0.547174
vt 0.041388 0.696842
vt 0.595375 0.213202
vt 0.261644 0.611449
vt 0.002910 0.362233
vt 0.262817 0.547579
vt 0.264908 0.366823
vt 0.263248 0.586451
vt 0.041388 0.511900
vt 0.616537 0.620973
vt 0.629261 0.588377
vt 0.536180 0.588377
vt 0.548905 0.620973
vt 0.629261 0.463484
vt 0.536180 0.463484
vt 0.540267 0.632400
vt 0.540267 0.757293
vt 0.633348 0.757293
vt 0.633348 0.632400
vt 0.552991 0.789889
vt 0.620624 0.789889
vn 0.997656 0.068424 -0.000573
vn 0.997877 0.062214 -0.019282
vn 1.000000 0.000000 0.000000
vn 1.000000 0.000000 0.000000
vn 0.998066 0.052384 -0.033473
vn 1.000000 0.000000 0.000000
vn 0.998152 0.042336 -0.043588
vn 1.000000 0.000000 0.000000
vn 0.892182 0.370337 -0.258578
vn 0.874157 0.339203 -0.347551
vn 0.922276 0.366774 -0.122003
vn 0.931573 0.363550 -0.001871
vn -0.000000 0.694478 -0.719514
vn 0.000000 0.846049 -0.533106
vn 0.000000 0.846049 -0.533106
vn -0.000000 0.694478 -0.719514
vn 0.000000 0.960743 -0.277440
vn 0.000000 0.960743 -0.277440
vn 0.000000 0.999982 -0.005938
vn 0.000000 0.999982 -0.005938
vn -0.874157 0.339202 -0.347550
vn -0.892183 0.370336 -0.258577
vn -0.998066 0.052384 -0.033473
vn -0.998152 0.042336 -0.043588
vn -0.922276 0.366773 -0.122003
vn -0.997877 0.062213 -0.019282
vn -0.931573 0.363549 -0.001871
vn -0.997656 0.068424 -0.000573
vn -1.000000 0.000000 -0.000000
vn -1.000000 0.000000 -0.000000
vn -1.000000 -0.000000 -0.000000
vn -1.000000 -0.000000 0.000000
vn -0.998152 0.042336 -0.043588
vn -0.998066 0.052384 -0.033473
vn -1.000000 0.000000 0.000000
vn -1.000000 0.000000 0.000000
vn -0.997877 0.062214 -0.019282
vn -1.000000 0.000000 0.000000
vn -0.997656 0.068424 -0.000573
vn -1.000000 0.000000 0.000000
vn -0.922276 0.366773 -0.122003
vn -0.931573 0.363550 -0.001871
vn -0.892182 0.370336 -0.258577
vn -0.874157 0.339203 -0.347551
vn 0.000000 0.999982 -0.005938
vn -0.000000 0.960743 -0.277440
vn -0.000000 0.960743 -0.277440
vn 0.000000 0.999982 -0.005938
vn -0.000000 0.846049 -0.533106
vn -0.000000 0.846049 -0.533106
vn -0.000000 0.694478 -0.719514
vn -0.000000 0.694478 -0.719514
vn 0.931573 0.363549 -0.001871
vn 0.922276 0.366772 -0.122002
vn 0.997877 0.062213 -0.019282
vn 0.997656 0.068424 -0.000573
vn 0.892183 0.370335 -0.258577
vn 0.998066 0.052384 -0.033473
vn 0.874157 0.339202 -0.347550
vn 0.998152 0.042336 -0.043588
vn 1.000000 -0.000000 -0.000000
vn 1.000000 -0.000000 0.000000
vn 1.000000 0.000000 -0.000000
vn 1.000000 0.000000 -0.000000
vn 0.000000 1.000000 0.000000
vn 0.000000 1.000000 0.000000
vn 0.000000 0.664603 -0.747197
vn 0.000000 0.664603 -0.747197
vn -0.996774 0.080258 0.000000
vn -0.931538 0.363645 0.000000
vn 0.996774 0.080257 0.000000
vn 0.931538 0.363644 0.000000
vn 0.983774 0.119873 -0.133491
vn 0.874223 0.324395 -0.361249
vn -0.983774 0.119873 -0.133492
vn -0.874224 0.324394 -0.361250
vn 1.000000 0.000000 0.000000
vn -1.000000 0.000000 -0.000000
vn 0.996774 0.080258 0.000000
vn 0.931538 0.363645 0.000000
vn 0.000000 1.000000 0.000000
vn 0.000000 1.000000 0.000000
vn -0.996774 0.080257 0.000000
vn -0.931538 0.363644 0.000000
vn -1.000000 0.000000 0.000000
vn -0.983774 0.119873 -0.133492
vn -0.874223 0.324396 -0.361250
vn 0.000000 0.664602 -0.747197
vn 0.000000 0.664602 -0.747197
vn 0.983774 0.119872 -0.133491
vn 0.874224 0.324394 -0.361249
vn 1.000000 0.000000 -0.000000
vn 1.000000 0.000000 0.000000
vn -1.000000 0.000000 0.000000
vn 1.000000 0.000000 0.000000
vn -1.000000 0.000000 0.000000
vn -0.923520 0.383549 0.000000
vn -0.998289 0.058476 0.000000
vn -0.998289 0.058476 0.000000
vn -0.923520 0.383549 0.000000
vn 0.998289 0.058476 0.000000
vn 0.923521 0.383549 0.000000
vn 0.923521 0.383549 0.000000
vn 0.998289 0.058476 0.000000
vn 0.000000 1.000000 0.000000
vn 0.000000 1.000000 0.000000
vn 0.000000 1.000000 0.000000
vn 0.000000 1.000000 0.000000
vn 0.998289 0.058476 0.000000
vn 0.923520 0.383549 0.000000
vn 0.923520 0.383549 0.000000
vn 0.998289 0.058476 0.000000
vn -0.923521 0.383549 0.000000
vn -0.998289 0.058476 0.000000
vn -0.998289 0.058476 0.000000
vn -0.923521 0.383549 0.000000
vn 0.000000 1.000000 0.000000
vn 0.000000 1.000000 0.000000
vn 0.000000 1.000000 0.000000
vn 0.000000 1.000000 0.000000
vn 0.999999 0.001403 0.000000
vn 0.999999 0.001403 0.000000
vn -0.999999 0.001403 0.000000
vn -0.999999 0.001403 0.000000
vn 0.999999 0.001403 0.000000
vn 0.999999 0.001403 0.000000
vn -0.999999 0.001403 0.000000
vn -0.999999 0.001403 0.000000
vn -0.000001 0.000000 -1.000000
vn -0.000003 0.000000 -1.000000
vn -0.000003 0.000000 -1.000000
vn -0.000000 0.000000 -1.000000
vn 0.000004 0.000000 -1.000000
vn -0.000001 0.000000 -1.000000
vn -0.000000 0.000000 -1.000000
vn 0.000004 0.000000 -1.000000
vn 0.000005 0.000000 -1.000000
vn 0.000005 0.000000 -1.000000
vn -0.000003 0.000000 -1.000000
vn -0.000003 0.000000 -1.000000
vn 0.000004 0.000000 -1.000000
vn -0.000001 0.000000 -1.000000
vn -0.000000 0.000000 -1.000000
vn 0.000004 0.000000 -1.000000
vn -0.000001 0.000000 -1.000000
vn -0.000003 0.000000 -1.000000
vn -0.000003 0.000000 -1.000000
vn -0.000000 0.000000 -1.000000
vn -0.000003 0.000000 -1.000000
vn -0.000003 0.000000 -1.000000
vn 0.000005 0.000000 -1.000000
vn 0.000005 0.000000 -1.000000
vn 0.000000 0.000000 1.000000
vn -0.000001 0.000000 1.000000
vn -0.000001 0.000000 1.000000
vn 0.000000 0.000000 1.000000
vn -0.000001 0.000000 1.000000
vn -0.000001 0.000000 1.000000
vn 0.000000 0.000000 1.000000
vn 0.000000 0.000000 1.000000
vn 0.000000 0.000000 1.000000
vn 0.000000 0.000000 1.000000
vn 0.000000 0.000000 1.000000
vn 0.000000 0.000000 1.000000
vn 0.000000 0.000000 -1.000000
vn 0.000000 0.000000 -1.000000
vn 0.000000 0.000000 -1.000000
vn 0.000000 0.000000 -1.000000
vn 0.000000 0.000000 -1.000000
vn 0.000000 0.000000 -1.000000
vn 0.000000 0.000000 -1.000000
vn 0.000000 0.000000 -1.000000
vn 0.000000 0.000000 -1.000000
vn 0.000000 0.000000 -1.000000
vn 0.000000 0.000000 -1.000000
vn 0.000000 0.000000 -1.000000
s 1
g polySurface19 pCube30
usemtl initialShadingGroup
f 27/1/1 26/2/2 66/3/3 65/4/4
f 26/2/2 25/5/5 67/6/6 66/3/3
f 25/5/5 28/7/7 68/8/8 67/6/6
f 28/7/7 25/5/5 30/9/9 31/10/10
f 25/5/5 26/2/2 29/11/11 30/9/9
f 26/2/2 27/1/1 32/12/12 29/11/11
s 2
f 31/10/13 30/9/14 34/13/15 35/14/16
f 30/9/14 29/11/17 33/15/18 34/13/15
f 29/11/17 32/12/19 36/16/20 33/15/18
s 3
f 35/14/21 34/13/22 38/17/23 39/18/24
f 34/13/22 33/15/25 37/19/26 38/17/23
f 33/15/25 36/16/27 40/20/28 37/19/26
f 39/18/24 38/17/23 42/21/29 41/22/30
f 38/17/23 37/19/26 43/23/31 42/21/29
f 37/19/26 40/20/28 44/24/32 43/23/31
s 4
f 47/25/33 46/26/34 70/27/35 69/28/36
f 46/26/34 45/29/37 71/30/38 70/27/35
f 45/29/37 48/31/39 72/32/40 71/30/38
f 48/31/39 45/29/37 50/33/41 51/34/42
f 45/29/37 46/26/34 49/35/43 50/33/41
f 46/26/34 47/25/33 52/36/44 49/35/43
s 5
f 51/34/45 50/33/46 54/37/47 55/38/48
f 50/33/46 49/35/49 53/39/50 54/37/47
f 49/35/49 52/36/51 56/40/52 53/39/50
s 6
f 55/38/53 54/37/54 58/41/55 59/42/56
f 54/37/54 53/39/57 57/43/58 58/41/55
f 53/39/57 56/40/59 60/44/60 57/43/58
f 59/42/56 58/41/55 62/45/61 61/46/62
f 58/41/55 57/43/58 63/47/63 62/45/61
f 57/43/58 60/44/60 64/48/64 63/47/63
s 5
f 10/49/65 51/34/45 55/38/48 12/50/66
s 2
f 13/105/67 31/10/13 35/14/16 16/106/68
s 4
f 4/53/69 48/31/39 51/34/42 10/49/70
s 6
f 55/38/53 59/42/56 5/54/71 12/50/72
s 1
f 1/99/73 28/7/7 31/10/10 13/105/74
s 3
f 35/14/21 39/18/24 7/101/75 16/106/76
s 6
f 5/54/71 59/42/56 61/46/62 18/57/77
s 3
f 7/101/75 39/18/24 41/22/30 19/58/78
s 1
f 32/12/12 27/1/1 3/59/79 14/60/80
s 2
f 36/16/20 32/12/19 14/60/81 15/61/82
s 3
f 8/62/83 40/20/28 36/16/27 15/61/84
f 44/24/32 40/20/28 8/62/83 20/63/85
s 4
f 52/36/44 47/25/33 2/97/86 9/107/87
s 5
f 56/40/52 52/36/51 9/107/88 11/108/89
s 6
f 6/103/90 60/44/60 56/40/59 11/108/91
f 64/48/64 60/44/60 6/103/90 17/104/92
s 1
f 28/7/7 1/99/73 21/100/93 68/8/8
s 4
f 2/97/86 47/25/33 69/28/36 22/70/94
s 1
f 3/59/79 27/1/1 65/4/4 23/71/95
s 4
f 48/31/39 4/53/69 24/72/96 72/32/40
s 7
f 74/73/97 73/74/98 75/115/99 76/119/100
s 8
f 77/77/101 78/78/102 79/79/103 80/117/104
s off
f 78/78/105 74/73/106 76/119/107 79/79/108
s 9
f 85/81/109 86/82/110 87/83/111 88/109/112
s 10
f 90/85/113 89/86/114 91/111/115 92/114/116
s off
f 86/82/117 90/85/118 92/114/119 87/83/120
s 8
f 81/89/121 77/77/101 80/117/104 82/118/122
s 10
f 89/86/114 93/91/123 94/92/124 91/111/115
s 9
f 95/93/125 85/81/109 88/109/112 96/110/126
s 7
f 73/74/98 83/95/127 84/96/128 75/115/99
s 11
f 9/65/129 2/64/130 73/74/131 74/73/132
f 6/67/133 11/66/134 78/78/135 77/77/136
f 11/66/134 9/65/129 74/73/132 78/78/135
f 17/68/137 6/67/133 77/77/136 81/89/138
f 2/64/130 22/98/139 83/95/140 73/74/131
s 12
f 1/55/141 13/51/142 86/82/143 85/81/144
f 16/52/145 7/56/146 89/86/147 90/85/148
f 13/51/142 16/52/145 90/85/148 86/82/143
f 7/56/146 19/102/149 93/91/150 89/86/147
f 21/69/151 1/55/141 85/81/144 95/93/152
s 14
f 76/76/153 75/75/154 80/80/155 79/120/156
f 75/75/154 84/116/157 82/90/158 80/80/155
s 15
f 96/94/159 88/84/160 91/87/161 94/112/162
f 88/84/160 87/113/163 92/88/164 91/87/161
s 16
f 14/121/165 3/122/166 8/123/167 15/124/168
f 3/122/166 23/125/169 20/126/170 8/123/167
s 17
f 24/127/171 4/128/172 5/129/173 18/130/174
f 4/128/172 10/131/175 12/132/176 5/129/173
g default
v 1.460829 0.399253 -4.837193
v -1.460829 0.399253 -4.837193
v -1.460829 -0.086688 2.593859
v 1.460829 -0.086688 2.593859
v 1.460829 0.399253 2.448091
v 1.460829 0.253485 2.593859
v -1.460829 0.253485 2.593859
v -1.460829 0.399253 2.448091
v -1.460829 -0.086688 -4.837193
v 1.460829 -0.086688 -4.837193
vt 0.644245 0.067508
vt 0.999998 0.067508
vt 1.000000 0.941691
vt 0.644246 0.941691
vt 0.999998 0.042772
vt 0.644245 0.042772
vt 0.644245 0.001953
vt 0.999998 0.001953
vt 1.000000 1.000000
vt 0.644246 1.000000
vn 0.000000 1.000000 0.000000
vn 0.000000 1.000000 0.000000
vn 0.000000 1.000000 0.000000
vn 0.000000 1.000000 0.000000
vn 0.000000 0.000000 1.000000
vn 0.000000 0.000000 1.000000
vn 0.000000 0.000000 1.000000
vn 0.000000 0.000000 1.000000
vn -0.000000 0.707107 0.707107
vn -0.000000 0.707107 0.707107
vn -0.000000 0.707107 0.707107
vn -0.000000 0.707107 0.707107
vn 0.000000 0.000000 -1.000000
vn 0.000000 0.000000 -1.000000
vn 0.000000 0.000000 -1.000000
vn 0.000000 0.000000 -1.000000
s off
g pCube30 polySurface18
usemtl initialShadingGroup
f 104/133/177 101/134/178 97/135/179 98/136/180
f 102/137/181 103/138/182 99/139/183 100/140/184
f 102/137/185 101/134/186 104/133/187 103/138/188
f 98/136/189 97/135/190 106/141/191 105/142/192
