# This file uses centimeters as units for non-parametric coordinates.

mtllib woodm9right3.mtl
g default
v -2.272641 0.003867 0.095566
v -1.829544 -0.003867 0.095566
v -2.202186 4.040225 0.095566
v -1.759089 4.032491 0.095566
v -2.202186 4.040225 -0.170346
v -1.759089 4.032491 -0.170346
v -2.272641 0.003867 -0.170346
v -1.829544 -0.003867 -0.170346
v -2.037394 0.186200 -0.141414
v 2.023661 0.044385 -0.141414
v -2.023661 0.579439 -0.141414
v 2.037394 0.437624 -0.141414
v -2.023661 0.579439 -0.306844
v 2.037394 0.437624 -0.306844
v -2.037394 0.186200 -0.306844
v 2.023661 0.044385 -0.306844
v -2.034889 3.565828 -0.141414
v 2.028022 3.494910 -0.141414
v -2.028022 3.959247 -0.141414
v 2.034889 3.888329 -0.141414
v -2.028022 3.959247 -0.306844
v 2.034889 3.888329 -0.306844
v -2.034889 3.565828 -0.306844
v 2.028022 3.494910 -0.306844
v -2.028022 2.831217 -0.141414
v 2.034889 2.902135 -0.141414
v -2.034889 3.224636 -0.141414
v 2.028022 3.295554 -0.141414
v -2.034889 3.224636 -0.306844
v 2.028022 3.295554 -0.306844
v -2.028022 2.831217 -0.306844
v 2.034889 2.902135 -0.306844
v -2.028022 1.535733 -0.141414
v 2.034889 1.606652 -0.141414
v -2.034889 1.929152 -0.141414
v 2.028022 2.000071 -0.141414
v -2.034889 1.929152 -0.306844
v 2.028022 2.000071 -0.306844
v -2.028022 1.535733 -0.306844
v 2.034889 1.606652 -0.306844
v -2.023661 0.856261 -0.141414
v 2.037394 0.998076 -0.141414
v -2.037394 1.249500 -0.141414
v 2.023661 1.391315 -0.141414
v -2.037394 1.249500 -0.306844
v 2.023661 1.391315 -0.306844
v -2.023661 0.856261 -0.306844
v 2.037394 0.998076 -0.306844
vt 0.051271 0.144805
vt 0.051271 0.097192
vt 0.484992 0.097192
vt 0.484992 0.144805
vt 0.513561 0.097192
vt 0.513561 0.144805
vt 0.484992 0.021011
vt 0.484992 0.068624
vt 0.051271 0.068623
vt 0.051271 0.021011
vt 0.022703 0.144805
vt 0.022702 0.097192
vt 0.051271 0.173373
vt 0.484992 0.173373
vt 0.538433 0.274008
vt 0.970540 0.274008
vt 0.970540 0.315849
vt 0.538433 0.315849
vt 0.970540 0.333441
vt 0.538433 0.333441
vt 0.970540 0.375282
vt 0.538433 0.375282
vt 0.538433 0.256416
vt 0.970540 0.256416
vt 0.988131 0.274008
vt 0.988131 0.315849
vt 0.520842 0.274008
vt 0.520842 0.315849
vt 0.539740 0.395377
vt 0.971846 0.395377
vt 0.971846 0.437219
vt 0.539740 0.437219
vt 0.971846 0.454810
vt 0.539740 0.454810
vt 0.971846 0.496652
vt 0.539740 0.496652
vt 0.539740 0.377786
vt 0.971846 0.377786
vt 0.989438 0.395377
vt 0.989438 0.437219
vt 0.522149 0.395377
vt 0.522149 0.437219
vt 0.970540 0.600429
vt 0.538433 0.600430
vt 0.538433 0.558588
vt 0.970540 0.558588
vt 0.538434 0.540997
vt 0.970540 0.540996
vt 0.538433 0.499155
vt 0.970540 0.499155
vt 0.970540 0.618021
vt 0.538434 0.618021
vt 0.520842 0.600430
vt 0.520842 0.558588
vt 0.988131 0.600429
vt 0.988131 0.558588
vt 0.540787 0.026719
vt 0.972886 0.029277
vt 0.972638 0.071118
vt 0.540539 0.068560
vt 0.972534 0.088709
vt 0.540435 0.086151
vt 0.972286 0.130550
vt 0.540187 0.127992
vt 0.540891 0.009128
vt 0.972990 0.011686
vt 0.990477 0.029381
vt 0.990229 0.071222
vt 0.523196 0.026615
vt 0.522948 0.068456
vt 0.539241 0.757997
vt 0.971347 0.757997
vt 0.971347 0.799839
vt 0.539240 0.799839
vt 0.971347 0.817430
vt 0.539240 0.817430
vt 0.971347 0.859272
vt 0.539241 0.859272
vt 0.539241 0.740406
vt 0.971347 0.740406
vt 0.988938 0.757997
vt 0.988938 0.799839
vt 0.521649 0.757997
vt 0.521649 0.799839
vn -0.514437 0.008980 0.857481
vn 0.514437 -0.008980 0.857481
vn 0.514437 -0.008980 0.857481
vn -0.514437 0.008980 0.857481
vn 0.017452 0.999848 0.000000
vn 0.017452 0.999848 0.000000
vn 0.017452 0.999848 0.000000
vn 0.017452 0.999848 0.000000
vn -0.514437 0.008980 -0.857481
vn 0.514437 -0.008980 -0.857481
vn 0.514437 -0.008980 -0.857481
vn -0.514437 0.008980 -0.857481
vn -0.017452 -0.999848 0.000000
vn -0.017452 -0.999848 0.000000
vn -0.017452 -0.999848 0.000000
vn -0.017452 -0.999848 0.000000
vn 0.514437 -0.008980 0.857481
vn 0.514437 -0.008980 -0.857481
vn 0.514437 -0.008980 -0.857481
vn 0.514437 -0.008980 0.857481
vn -0.514437 0.008980 -0.857481
vn -0.514437 0.008980 0.857481
vn -0.514437 0.008980 0.857481
vn -0.514437 0.008980 -0.857481
vn -0.013526 -0.387332 0.921841
vn -0.013526 -0.387332 0.921841
vn 0.013526 0.387332 0.921841
vn 0.013526 0.387332 0.921841
vn 0.013526 0.387332 0.921841
vn 0.013526 0.387332 0.921841
vn 0.013526 0.387332 -0.921841
vn 0.013526 0.387332 -0.921841
vn 0.013526 0.387332 -0.921841
vn 0.013526 0.387332 -0.921841
vn -0.013526 -0.387332 -0.921841
vn -0.013526 -0.387332 -0.921841
vn -0.013526 -0.387332 -0.921841
vn -0.013526 -0.387332 -0.921841
vn -0.013526 -0.387332 0.921841
vn -0.013526 -0.387332 0.921841
vn 0.999391 -0.034900 0.000000
vn 0.999391 -0.034900 0.000000
vn 0.999391 -0.034900 0.000000
vn 0.999391 -0.034900 0.000000
vn -0.999391 0.034900 0.000000
vn -0.999391 0.034900 0.000000
vn -0.999391 0.034900 0.000000
vn -0.999391 0.034900 0.000000
vn -0.006764 -0.387509 0.921841
vn -0.006764 -0.387509 0.921841
vn 0.006764 0.387509 0.921841
vn 0.006764 0.387509 0.921841
vn 0.006764 0.387509 0.921841
vn 0.006764 0.387509 0.921841
vn 0.006764 0.387510 -0.921841
vn 0.006764 0.387510 -0.921841
vn 0.006764 0.387510 -0.921841
vn 0.006764 0.387510 -0.921841
vn -0.006764 -0.387509 -0.921841
vn -0.006764 -0.387509 -0.921841
vn -0.006764 -0.387509 -0.921841
vn -0.006764 -0.387509 -0.921841
vn -0.006764 -0.387509 0.921841
vn -0.006764 -0.387509 0.921841
vn 0.999848 -0.017453 0.000000
vn 0.999848 -0.017453 0.000000
vn 0.999848 -0.017453 0.000000
vn 0.999848 -0.017453 0.000000
vn -0.999848 0.017452 0.000000
vn -0.999848 0.017452 0.000000
vn -0.999848 0.017452 0.000000
vn -0.999848 0.017452 0.000000
vn 0.006764 -0.387509 0.921841
vn 0.006764 -0.387509 0.921841
vn -0.006764 0.387509 0.921841
vn -0.006764 0.387509 0.921841
vn -0.006764 0.387509 0.921841
vn -0.006764 0.387509 0.921841
vn -0.006764 0.387509 -0.921841
vn -0.006764 0.387509 -0.921841
vn -0.006764 0.387509 -0.921841
vn -0.006764 0.387509 -0.921841
vn 0.006764 -0.387509 -0.921841
vn 0.006764 -0.387509 -0.921841
vn 0.006764 -0.387509 -0.921841
vn 0.006764 -0.387509 -0.921841
vn 0.006764 -0.387509 0.921841
vn 0.006764 -0.387509 0.921841
vn 0.999848 0.017453 0.000000
vn 0.999848 0.017453 0.000000
vn 0.999848 0.017453 0.000000
vn 0.999848 0.017453 0.000000
vn -0.999848 -0.017452 0.000000
vn -0.999848 -0.017452 0.000000
vn -0.999848 -0.017452 0.000000
vn -0.999848 -0.017452 0.000000
vn 0.006764 -0.387509 0.921841
vn 0.006764 -0.387509 0.921841
vn -0.006764 0.387509 0.921841
vn -0.006764 0.387509 0.921841
vn -0.006764 0.387509 0.921841
vn -0.006764 0.387509 0.921841
vn -0.006764 0.387509 -0.921841
vn -0.006764 0.387509 -0.921841
vn -0.006764 0.387509 -0.921841
vn -0.006764 0.387509 -0.921841
vn 0.006764 -0.387509 -0.921841
vn 0.006764 -0.387509 -0.921841
vn 0.006764 -0.387509 -0.921841
vn 0.006764 -0.387509 -0.921841
vn 0.006764 -0.387509 0.921841
vn 0.006764 -0.387509 0.921841
vn 0.999848 0.017453 0.000000
vn 0.999848 0.017453 0.000000
vn 0.999848 0.017453 0.000000
vn 0.999848 0.017453 0.000000
vn -0.999848 -0.017452 0.000000
vn -0.999848 -0.017452 0.000000
vn -0.999848 -0.017452 0.000000
vn -0.999848 -0.017452 0.000000
vn 0.013526 -0.387332 0.921841
vn 0.013526 -0.387332 0.921841
vn -0.013526 0.387332 0.921841
vn -0.013526 0.387332 0.921841
vn -0.013526 0.387332 0.921841
vn -0.013526 0.387332 0.921841
vn -0.013526 0.387332 -0.921841
vn -0.013526 0.387332 -0.921841
vn -0.013526 0.387332 -0.921841
vn -0.013526 0.387332 -0.921841
vn 0.013526 -0.387332 -0.921841
vn 0.013526 -0.387332 -0.921841
vn 0.013526 -0.387332 -0.921841
vn 0.013526 -0.387332 -0.921841
vn 0.013526 -0.387332 0.921841
vn 0.013526 -0.387332 0.921841
vn 0.999391 0.034900 0.000000
vn 0.999391 0.034900 0.000000
vn 0.999391 0.034900 0.000000
vn 0.999391 0.034900 0.000000
vn -0.999391 -0.034900 0.000000
vn -0.999391 -0.034900 0.000000
vn -0.999391 -0.034900 0.000000
vn -0.999391 -0.034900 0.000000
s off
g woodm9right
usemtl initialShadingGroup
f 1/1/1 2/2/2 4/3/3 3/4/4
f 3/4/5 4/3/6 6/5/7 5/6/8
f 5/7/9 6/8/10 8/9/11 7/10/12
f 7/11/13 8/12/14 2/2/15 1/1/16
f 2/2/17 8/9/18 6/8/19 4/3/20
f 7/13/21 1/1/22 3/4/23 5/14/24
f 9/15/25 10/16/26 12/17/27 11/18/28
f 11/18/29 12/17/30 14/19/31 13/20/32
f 13/20/33 14/19/34 16/21/35 15/22/36
f 15/23/37 16/24/38 10/16/39 9/15/40
f 10/16/41 16/25/42 14/26/43 12/17/44
f 15/27/45 9/15/46 11/18/47 13/28/48
f 17/29/49 18/30/50 20/31/51 19/32/52
f 19/32/53 20/31/54 22/33/55 21/34/56
f 21/34/57 22/33/58 24/35/59 23/36/60
f 23/37/61 24/38/62 18/30/63 17/29/64
f 18/30/65 24/39/66 22/40/67 20/31/68
f 23/41/69 17/29/70 19/32/71 21/42/72
f 25/43/73 26/44/74 28/45/75 27/46/76
f 27/46/77 28/45/78 30/47/79 29/48/80
f 29/48/81 30/47/82 32/49/83 31/50/84
f 31/51/85 32/52/86 26/44/87 25/43/88
f 26/44/89 32/53/90 30/54/91 28/45/92
f 31/55/93 25/43/94 27/46/95 29/56/96
f 33/57/97 34/58/98 36/59/99 35/60/100
f 35/60/101 36/59/102 38/61/103 37/62/104
f 37/62/105 38/61/106 40/63/107 39/64/108
f 39/65/109 40/66/110 34/58/111 33/57/112
f 34/58/113 40/67/114 38/68/115 36/59/116
f 39/69/117 33/57/118 35/60/119 37/70/120
f 41/71/121 42/72/122 44/73/123 43/74/124
f 43/74/125 44/73/126 46/75/127 45/76/128
f 45/76/129 46/75/130 48/77/131 47/78/132
f 47/79/133 48/80/134 42/72/135 41/71/136
f 42/72/137 48/81/138 46/82/139 44/73/140
f 47/83/141 41/71/142 43/74/143 45/84/144
