# This file uses centimeters as units for non-parametric coordinates.

mtllib woodm9attachleft.mtl
g default
v -2.037394 0.186200 -0.141414
v 2.023661 0.044385 -0.141414
v -2.023661 0.579439 -0.141414
v 2.037394 0.437624 -0.141414
v -2.023661 0.579439 -0.306844
v 2.037394 0.437624 -0.306844
v -2.037394 0.186200 -0.306844
v 2.023661 0.044385 -0.306844
v -2.034889 1.635294 -0.141414
v 2.028022 1.564376 -0.141414
v -2.028022 2.028713 -0.141414
v 2.034889 1.957795 -0.141414
v -2.028022 2.028713 -0.306844
v 2.034889 1.957795 -0.306844
v -2.034889 1.635294 -0.306844
v 2.028022 1.564376 -0.306844
v -2.028022 0.621135 -0.141414
v 2.034889 0.692053 -0.141414
v -2.034889 1.014554 -0.141414
v 2.028022 1.085472 -0.141414
v -2.034889 1.014554 -0.306844
v 2.028022 1.085472 -0.306844
v -2.028022 0.621135 -0.306844
v 2.034889 0.692053 -0.306844
v -2.023661 2.051962 -0.141414
v 2.037394 2.193777 -0.141414
v -2.037394 2.445201 -0.141414
v 2.023661 2.587016 -0.141414
v -2.037394 2.445201 -0.306844
v 2.023661 2.587016 -0.306844
v -2.023661 2.051962 -0.306844
v 2.037394 2.193777 -0.306844
v -2.028022 1.071930 -0.141414
v 2.034889 1.142849 -0.141414
v -2.034889 1.465349 -0.141414
v 2.028022 1.536268 -0.141414
v -2.034889 1.465349 -0.306844
v 2.028022 1.536268 -0.306844
v -2.028022 1.071930 -0.306844
v 2.034889 1.142849 -0.306844
v -2.028022 2.556589 -0.141414
v 2.034889 2.627507 -0.141414
v -2.034889 2.950008 -0.141414
v 2.028022 3.020926 -0.141414
v -2.034889 2.950008 -0.306844
v 2.028022 3.020926 -0.306844
v -2.028022 2.556589 -0.306844
v 2.034889 2.627507 -0.306844
v -2.028022 3.033572 -0.141414
v 2.034889 3.104491 -0.141414
v -2.034889 3.426991 -0.141414
v 2.028022 3.497909 -0.141414
v -2.034889 3.426991 -0.306844
v 2.028022 3.497909 -0.306844
v -2.028022 3.033572 -0.306844
v 2.034889 3.104491 -0.306844
v -2.023661 3.460163 -0.141414
v 2.037394 3.601978 -0.141414
v -2.037394 3.853402 -0.141414
v 2.023661 3.995217 -0.141414
v -2.037394 3.853402 -0.306844
v 2.023661 3.995217 -0.306844
v -2.023661 3.460163 -0.306844
v 2.037394 3.601978 -0.306844
v 2.272641 0.003867 0.095566
v 1.829544 -0.003867 0.095566
v 2.202186 4.040225 0.095566
v 1.759089 4.032491 0.095566
v 2.202186 4.040225 -0.170346
v 1.759089 4.032491 -0.170346
v 2.272641 0.003867 -0.170346
v 1.829544 -0.003867 -0.170346
vt 0.538433 0.274008
vt 0.970540 0.274008
vt 0.970540 0.315849
vt 0.538433 0.315849
vt 0.970540 0.333441
vt 0.538433 0.333441
vt 0.970540 0.375282
vt 0.538433 0.375282
vt 0.538433 0.256416
vt 0.970540 0.256416
vt 0.988131 0.274008
vt 0.988131 0.315849
vt 0.520842 0.274008
vt 0.520842 0.315849
vt 0.539740 0.395377
vt 0.971846 0.395377
vt 0.971846 0.437219
vt 0.539740 0.437219
vt 0.971846 0.454810
vt 0.539740 0.454810
vt 0.971846 0.496652
vt 0.539740 0.496652
vt 0.539740 0.377786
vt 0.971846 0.377786
vt 0.989438 0.395377
vt 0.989438 0.437219
vt 0.522149 0.395377
vt 0.522149 0.437219
vt 0.970540 0.600429
vt 0.538433 0.600430
vt 0.538433 0.558588
vt 0.970540 0.558588
vt 0.538434 0.540997
vt 0.970540 0.540996
vt 0.538433 0.499155
vt 0.970540 0.499155
vt 0.970540 0.618021
vt 0.538434 0.618021
vt 0.520842 0.600430
vt 0.520842 0.558588
vt 0.988131 0.600429
vt 0.988131 0.558588
vt 0.539241 0.638116
vt 0.971347 0.638115
vt 0.971347 0.679957
vt 0.539240 0.679957
vt 0.971347 0.697548
vt 0.539240 0.697548
vt 0.971347 0.739390
vt 0.539241 0.739390
vt 0.539241 0.620524
vt 0.971347 0.620524
vt 0.988938 0.638115
vt 0.988938 0.679957
vt 0.521649 0.638115
vt 0.521649 0.679957
vt 0.539009 0.151122
vt 0.971113 0.152655
vt 0.970964 0.194496
vt 0.538860 0.192963
vt 0.970902 0.212087
vt 0.538798 0.210554
vt 0.970753 0.253929
vt 0.538649 0.252396
vt 0.539071 0.133530
vt 0.971175 0.135063
vt 0.988704 0.152717
vt 0.988555 0.194559
vt 0.521418 0.151059
vt 0.521269 0.192901
vt 0.540787 0.026719
vt 0.972886 0.029277
vt 0.972638 0.071118
vt 0.540539 0.068560
vt 0.972534 0.088709
vt 0.540435 0.086151
vt 0.972286 0.130550
vt 0.540187 0.127992
vt 0.540891 0.009128
vt 0.972990 0.011686
vt 0.990477 0.029381
vt 0.990229 0.071222
vt 0.523196 0.026615
vt 0.522948 0.068456
vt 0.970540 0.966170
vt 0.538433 0.966170
vt 0.538433 0.924329
vt 0.970540 0.924328
vt 0.538434 0.906737
vt 0.970540 0.906737
vt 0.538433 0.864896
vt 0.970540 0.864895
vt 0.970540 0.983761
vt 0.538434 0.983762
vt 0.520842 0.966170
vt 0.520842 0.924329
vt 0.988131 0.966170
vt 0.988131 0.924328
vt 0.539241 0.757997
vt 0.971347 0.757997
vt 0.971347 0.799839
vt 0.539240 0.799839
vt 0.971347 0.817430
vt 0.539240 0.817430
vt 0.971347 0.859272
vt 0.539241 0.859272
vt 0.539241 0.740406
vt 0.971347 0.740406
vt 0.988938 0.757997
vt 0.988938 0.799839
vt 0.521649 0.757997
vt 0.521649 0.799839
vt 0.051271 0.315573
vt 0.484992 0.315573
vt 0.484992 0.267960
vt 0.051271 0.267960
vt 0.513561 0.315573
vt 0.513561 0.267960
vt 0.484992 0.191779
vt 0.051271 0.191779
vt 0.051271 0.239391
vt 0.484992 0.239392
vt 0.022703 0.315573
vt 0.022702 0.267960
vt 0.051271 0.344141
vt 0.484992 0.344141
vn -0.013526 -0.387332 0.921841
vn -0.013526 -0.387332 0.921841
vn 0.013526 0.387332 0.921841
vn 0.013526 0.387332 0.921841
vn 0.013526 0.387332 0.921841
vn 0.013526 0.387332 0.921841
vn 0.013526 0.387332 -0.921841
vn 0.013526 0.387332 -0.921841
vn 0.013526 0.387332 -0.921841
vn 0.013526 0.387332 -0.921841
vn -0.013526 -0.387332 -0.921841
vn -0.013526 -0.387332 -0.921841
vn -0.013526 -0.387332 -0.921841
vn -0.013526 -0.387332 -0.921841
vn -0.013526 -0.387332 0.921841
vn -0.013526 -0.387332 0.921841
vn 0.999391 -0.034900 0.000000
vn 0.999391 -0.034900 0.000000
vn 0.999391 -0.034900 0.000000
vn 0.999391 -0.034900 0.000000
vn -0.999391 0.034900 0.000000
vn -0.999391 0.034900 0.000000
vn -0.999391 0.034900 0.000000
vn -0.999391 0.034900 0.000000
vn -0.006764 -0.387509 0.921841
vn -0.006764 -0.387509 0.921841
vn 0.006764 0.387509 0.921841
vn 0.006764 0.387509 0.921841
vn 0.006764 0.387509 0.921841
vn 0.006764 0.387509 0.921841
vn 0.006764 0.387510 -0.921841
vn 0.006764 0.387510 -0.921841
vn 0.006764 0.387510 -0.921841
vn 0.006764 0.387510 -0.921841
vn -0.006764 -0.387509 -0.921841
vn -0.006764 -0.387509 -0.921841
vn -0.006764 -0.387509 -0.921841
vn -0.006764 -0.387509 -0.921841
vn -0.006764 -0.387509 0.921841
vn -0.006764 -0.387509 0.921841
vn 0.999848 -0.017453 0.000000
vn 0.999848 -0.017453 0.000000
vn 0.999848 -0.017453 0.000000
vn 0.999848 -0.017453 0.000000
vn -0.999848 0.017452 0.000000
vn -0.999848 0.017452 0.000000
vn -0.999848 0.017452 0.000000
vn -0.999848 0.017452 0.000000
vn 0.006764 -0.387509 0.921841
vn 0.006764 -0.387509 0.921841
vn -0.006764 0.387509 0.921841
vn -0.006764 0.387509 0.921841
vn -0.006764 0.387509 0.921841
vn -0.006764 0.387509 0.921841
vn -0.006764 0.387509 -0.921841
vn -0.006764 0.387509 -0.921841
vn -0.006764 0.387509 -0.921841
vn -0.006764 0.387509 -0.921841
vn 0.006764 -0.387509 -0.921841
vn 0.006764 -0.387509 -0.921841
vn 0.006764 -0.387509 -0.921841
vn 0.006764 -0.387509 -0.921841
vn 0.006764 -0.387509 0.921841
vn 0.006764 -0.387509 0.921841
vn 0.999848 0.017453 0.000000
vn 0.999848 0.017453 0.000000
vn 0.999848 0.017453 0.000000
vn 0.999848 0.017453 0.000000
vn -0.999848 -0.017452 0.000000
vn -0.999848 -0.017452 0.000000
vn -0.999848 -0.017452 0.000000
vn -0.999848 -0.017452 0.000000
vn 0.013526 -0.387332 0.921841
vn 0.013526 -0.387332 0.921841
vn -0.013526 0.387332 0.921841
vn -0.013526 0.387332 0.921841
vn -0.013526 0.387332 0.921841
vn -0.013526 0.387332 0.921841
vn -0.013526 0.387332 -0.921841
vn -0.013526 0.387332 -0.921841
vn -0.013526 0.387332 -0.921841
vn -0.013526 0.387332 -0.921841
vn 0.013526 -0.387332 -0.921841
vn 0.013526 -0.387332 -0.921841
vn 0.013526 -0.387332 -0.921841
vn 0.013526 -0.387332 -0.921841
vn 0.013526 -0.387332 0.921841
vn 0.013526 -0.387332 0.921841
vn 0.999391 0.034900 0.000000
vn 0.999391 0.034900 0.000000
vn 0.999391 0.034900 0.000000
vn 0.999391 0.034900 0.000000
vn -0.999391 -0.034900 0.000000
vn -0.999391 -0.034900 0.000000
vn -0.999391 -0.034900 0.000000
vn -0.999391 -0.034900 0.000000
vn 0.006764 -0.387509 0.921841
vn 0.006764 -0.387509 0.921841
vn -0.006764 0.387509 0.921841
vn -0.006764 0.387509 0.921841
vn -0.006764 0.387509 0.921841
vn -0.006764 0.387509 0.921841
vn -0.006764 0.387509 -0.921841
vn -0.006764 0.387509 -0.921841
vn -0.006764 0.387509 -0.921841
vn -0.006764 0.387509 -0.921841
vn 0.006764 -0.387509 -0.921841
vn 0.006764 -0.387509 -0.921841
vn 0.006764 -0.387509 -0.921841
vn 0.006764 -0.387509 -0.921841
vn 0.006764 -0.387509 0.921841
vn 0.006764 -0.387509 0.921841
vn 0.999848 0.017453 0.000000
vn 0.999848 0.017453 0.000000
vn 0.999848 0.017453 0.000000
vn 0.999848 0.017453 0.000000
vn -0.999848 -0.017452 0.000000
vn -0.999848 -0.017452 0.000000
vn -0.999848 -0.017452 0.000000
vn -0.999848 -0.017452 0.000000
vn 0.006764 -0.387509 0.921841
vn 0.006764 -0.387509 0.921841
vn -0.006764 0.387509 0.921841
vn -0.006764 0.387509 0.921841
vn -0.006764 0.387509 0.921841
vn -0.006764 0.387509 0.921841
vn -0.006764 0.387509 -0.921841
vn -0.006764 0.387509 -0.921841
vn -0.006764 0.387509 -0.921841
vn -0.006764 0.387509 -0.921841
vn 0.006764 -0.387509 -0.921841
vn 0.006764 -0.387509 -0.921841
vn 0.006764 -0.387509 -0.921841
vn 0.006764 -0.387509 -0.921841
vn 0.006764 -0.387509 0.921841
vn 0.006764 -0.387509 0.921841
vn 0.999848 0.017453 0.000000
vn 0.999848 0.017453 0.000000
vn 0.999848 0.017453 0.000000
vn 0.999848 0.017453 0.000000
vn -0.999848 -0.017452 0.000000
vn -0.999848 -0.017452 0.000000
vn -0.999848 -0.017452 0.000000
vn -0.999848 -0.017452 0.000000
vn 0.006764 -0.387509 0.921841
vn 0.006764 -0.387509 0.921841
vn -0.006764 0.387509 0.921841
vn -0.006764 0.387509 0.921841
vn -0.006764 0.387509 0.921841
vn -0.006764 0.387509 0.921841
vn -0.006764 0.387509 -0.921841
vn -0.006764 0.387509 -0.921841
vn -0.006764 0.387509 -0.921841
vn -0.006764 0.387509 -0.921841
vn 0.006764 -0.387509 -0.921841
vn 0.006764 -0.387509 -0.921841
vn 0.006764 -0.387509 -0.921841
vn 0.006764 -0.387509 -0.921841
vn 0.006764 -0.387509 0.921841
vn 0.006764 -0.387509 0.921841
vn 0.999848 0.017453 0.000000
vn 0.999848 0.017453 0.000000
vn 0.999848 0.017453 0.000000
vn 0.999848 0.017453 0.000000
vn -0.999848 -0.017452 0.000000
vn -0.999848 -0.017452 0.000000
vn -0.999848 -0.017452 0.000000
vn -0.999848 -0.017452 0.000000
vn 0.013526 -0.387332 0.921841
vn 0.013526 -0.387332 0.921841
vn -0.013526 0.387332 0.921841
vn -0.013526 0.387332 0.921841
vn -0.013526 0.387332 0.921841
vn -0.013526 0.387332 0.921841
vn -0.013526 0.387332 -0.921841
vn -0.013526 0.387332 -0.921841
vn -0.013526 0.387332 -0.921841
vn -0.013526 0.387332 -0.921841
vn 0.013526 -0.387332 -0.921841
vn 0.013526 -0.387332 -0.921841
vn 0.013526 -0.387332 -0.921841
vn 0.013526 -0.387332 -0.921841
vn 0.013526 -0.387332 0.921841
vn 0.013526 -0.387332 0.921841
vn 0.999391 0.034900 0.000000
vn 0.999391 0.034900 0.000000
vn 0.999391 0.034900 0.000000
vn 0.999391 0.034900 0.000000
vn -0.999391 -0.034900 0.000000
vn -0.999391 -0.034900 0.000000
vn -0.999391 -0.034900 0.000000
vn -0.999391 -0.034900 0.000000
vn 0.514437 0.008980 0.857481
vn 0.514437 0.008980 0.857481
vn -0.514437 -0.008980 0.857481
vn -0.514437 -0.008980 0.857481
vn -0.017452 0.999848 0.000000
vn -0.017452 0.999848 0.000000
vn -0.017452 0.999848 0.000000
vn -0.017452 0.999848 0.000000
vn 0.514437 0.008980 -0.857481
vn 0.514437 0.008980 -0.857481
vn -0.514437 -0.008980 -0.857481
vn -0.514437 -0.008980 -0.857481
vn 0.017452 -0.999848 0.000000
vn 0.017452 -0.999848 0.000000
vn 0.017452 -0.999848 0.000000
vn 0.017452 -0.999848 0.000000
vn -0.514437 -0.008980 0.857481
vn -0.514437 -0.008980 0.857481
vn -0.514437 -0.008980 -0.857481
vn -0.514437 -0.008980 -0.857481
vn 0.514437 0.008980 -0.857481
vn 0.514437 0.008980 -0.857481
vn 0.514437 0.008980 0.857481
vn 0.514437 0.008980 0.857481
s off
g woodm9lowpoly_polySurface33
usemtl woodm9lowpoly_initialShadingGroup
f 1/1/1 2/2/2 4/3/3 3/4/4
f 3/4/5 4/3/6 6/5/7 5/6/8
f 5/6/9 6/5/10 8/7/11 7/8/12
f 7/9/13 8/10/14 2/2/15 1/1/16
f 2/2/17 8/11/18 6/12/19 4/3/20
f 7/13/21 1/1/22 3/4/23 5/14/24
f 9/15/25 10/16/26 12/17/27 11/18/28
f 11/18/29 12/17/30 14/19/31 13/20/32
f 13/20/33 14/19/34 16/21/35 15/22/36
f 15/23/37 16/24/38 10/16/39 9/15/40
f 10/16/41 16/25/42 14/26/43 12/17/44
f 15/27/45 9/15/46 11/18/47 13/28/48
f 17/29/49 18/30/50 20/31/51 19/32/52
f 19/32/53 20/31/54 22/33/55 21/34/56
f 21/34/57 22/33/58 24/35/59 23/36/60
f 23/37/61 24/38/62 18/30/63 17/29/64
f 18/30/65 24/39/66 22/40/67 20/31/68
f 23/41/69 17/29/70 19/32/71 21/42/72
f 25/43/73 26/44/74 28/45/75 27/46/76
f 27/46/77 28/45/78 30/47/79 29/48/80
f 29/48/81 30/47/82 32/49/83 31/50/84
f 31/51/85 32/52/86 26/44/87 25/43/88
f 26/44/89 32/53/90 30/54/91 28/45/92
f 31/55/93 25/43/94 27/46/95 29/56/96
f 33/57/97 34/58/98 36/59/99 35/60/100
f 35/60/101 36/59/102 38/61/103 37/62/104
f 37/62/105 38/61/106 40/63/107 39/64/108
f 39/65/109 40/66/110 34/58/111 33/57/112
f 34/58/113 40/67/114 38/68/115 36/59/116
f 39/69/117 33/57/118 35/60/119 37/70/120
f 41/71/121 42/72/122 44/73/123 43/74/124
f 43/74/125 44/73/126 46/75/127 45/76/128
f 45/76/129 46/75/130 48/77/131 47/78/132
f 47/79/133 48/80/134 42/72/135 41/71/136
f 42/72/137 48/81/138 46/82/139 44/73/140
f 47/83/141 41/71/142 43/74/143 45/84/144
f 49/85/145 50/86/146 52/87/147 51/88/148
f 51/88/149 52/87/150 54/89/151 53/90/152
f 53/90/153 54/89/154 56/91/155 55/92/156
f 55/93/157 56/94/158 50/86/159 49/85/160
f 50/86/161 56/95/162 54/96/163 52/87/164
f 55/97/165 49/85/166 51/88/167 53/98/168
f 57/99/169 58/100/170 60/101/171 59/102/172
f 59/102/173 60/101/174 62/103/175 61/104/176
f 61/104/177 62/103/178 64/105/179 63/106/180
f 63/107/181 64/108/182 58/100/183 57/99/184
f 58/100/185 64/109/186 62/110/187 60/101/188
f 63/111/189 57/99/190 59/102/191 61/112/192
f 65/113/193 67/114/194 68/115/195 66/116/196
f 67/114/197 69/117/198 70/118/199 68/115/200
f 69/119/201 71/120/202 72/121/203 70/122/204
f 71/123/205 65/113/206 66/116/207 72/124/208
f 66/116/209 68/115/210 70/122/211 72/121/212
f 71/125/213 69/126/214 67/114/215 65/113/216
