# This file uses centimeters as units for non-parametric coordinates.

mtllib miidoorlow.mtl
g default
v -0.100874 0.000000 1.000000
v 0.100874 0.000000 1.000000
v -0.100874 3.000000 1.000000
v 0.100874 3.000000 1.000000
v -0.100874 3.000000 -1.000000
v 0.100874 3.000000 -1.000000
v -0.100874 0.000000 -1.000000
v 0.100874 0.000000 -1.000000
v 0.100874 0.000000 -0.823355
v 0.100874 0.000000 0.823355
v 0.100874 2.840954 -0.823355
v 0.100874 2.840954 0.823355
v -0.100874 0.000000 -0.823355
v -0.100874 0.000000 0.823355
v -0.100874 2.840954 0.823355
v -0.100874 2.840954 -0.823355
v -0.096171 0.000000 0.817111
v 0.080732 0.000000 0.817111
v -0.096171 2.840954 0.817111
v 0.080732 2.840954 0.817111
v -0.096171 2.840954 -0.817111
v 0.080732 2.840954 -0.817111
v -0.096171 0.000000 -0.817111
v 0.080732 0.000000 -0.817111
v -0.081471 1.673013 -0.625291
v -0.101821 1.668965 -0.625291
v -0.119073 1.657438 -0.625291
v -0.130601 1.640186 -0.625291
v -0.134648 1.161458 -0.625291
v -0.130601 1.141108 -0.625291
v -0.119073 1.123856 -0.625291
v -0.101821 1.112329 -0.625291
v -0.081471 1.108281 -0.625291
v -0.081471 1.693035 -0.583716
v -0.109483 1.687463 -0.583716
v -0.133231 1.671596 -0.583716
v -0.149098 1.647848 -0.583716
v -0.154670 1.161458 -0.583716
v -0.149098 1.133446 -0.583716
v -0.133231 1.109699 -0.583716
v -0.109483 1.093831 -0.583716
v -0.081471 1.088259 -0.583716
v -0.081471 1.738023 -0.573447
v -0.126700 1.729027 -0.573447
v -0.165042 1.703407 -0.573447
v -0.190662 1.665064 -0.573447
v -0.199658 1.161458 -0.573447
v -0.190662 1.116230 -0.573447
v -0.165042 1.077887 -0.573447
v -0.126700 1.052268 -0.573447
v -0.081471 1.043271 -0.573447
v -0.081471 1.774101 -0.602218
v -0.140506 1.762358 -0.602218
v -0.190553 1.728918 -0.602218
v -0.223993 1.678871 -0.602218
v -0.235736 1.161458 -0.602218
v -0.223993 1.102423 -0.602218
v -0.190553 1.052376 -0.602218
v -0.140506 1.018936 -0.602218
v -0.081471 1.007193 -0.602218
v -0.081471 1.774101 -0.648364
v -0.140506 1.762358 -0.648364
v -0.190553 1.728918 -0.648364
v -0.223993 1.678871 -0.648364
v -0.235736 1.161458 -0.648364
v -0.223993 1.102423 -0.648364
v -0.190553 1.052376 -0.648364
v -0.140506 1.018936 -0.648364
v -0.081471 1.007193 -0.648364
v -0.081471 1.738023 -0.677135
v -0.126700 1.729027 -0.677135
v -0.165042 1.703407 -0.677135
v -0.190662 1.665064 -0.677135
v -0.199658 1.161458 -0.677135
v -0.190662 1.116230 -0.677135
v -0.165042 1.077887 -0.677135
v -0.126700 1.052268 -0.677135
v -0.081471 1.043271 -0.677135
v -0.081471 1.693035 -0.666866
v -0.109483 1.687463 -0.666866
v -0.133231 1.671596 -0.666866
v -0.149098 1.647848 -0.666866
v -0.154670 1.161458 -0.666866
v -0.149098 1.133446 -0.666866
v -0.133231 1.109699 -0.666866
v -0.109483 1.093831 -0.666866
v -0.081471 1.088259 -0.666866
v -0.134648 1.619836 -0.625291
v -0.154670 1.619836 -0.583716
v -0.154670 1.619836 -0.666866
v -0.199658 1.619836 -0.677135
v -0.235736 1.619836 -0.648364
v -0.235736 1.619836 -0.602218
v -0.199658 1.619836 -0.573447
vt 0.991711 0.011279
vt 0.991048 0.036465
vt 0.662360 0.036414
vt 0.663023 0.011228
vt 0.333673 0.036363
vt 0.334335 0.011177
vt 0.004985 0.036313
vt 0.005648 0.011127
vt 0.162856 0.098501
vt 0.992025 0.098501
vt 0.948066 0.171735
vt 0.162856 0.171735
vt 0.992025 0.927670
vt 0.948066 0.854436
vt 0.862545 0.261331
vt 0.033376 0.261331
vt 0.033376 0.188097
vt 0.818586 0.188097
vt 0.010601 0.055070
vt 0.321863 0.055008
vt 0.322726 0.080194
vt 0.011464 0.080256
vt 0.592489 0.054953
vt 0.593352 0.080139
vt 0.903751 0.054891
vt 0.904614 0.080077
vt 0.781147 0.314094
vt 0.820039 0.314188
vt 0.818527 0.938756
vt 0.779636 0.938662
vt 0.779542 0.977553
vt 0.420268 0.976683
vt 0.420362 0.937792
vt 0.381471 0.937698
vt 0.382982 0.313131
vt 0.421873 0.313225
vt 0.421967 0.274334
vt 0.781242 0.275203
vt 0.023708 0.312261
vt 0.022197 0.936829
vt 0.833041 0.472697
vt 0.830510 0.466564
vt 0.843697 0.458154
vt 0.846965 0.466674
vt 0.834301 0.479803
vt 0.848832 0.476524
vt 0.834276 0.487479
vt 0.848700 0.486863
vt 0.833319 0.495673
vt 0.847338 0.497091
vt 0.834037 0.821362
vt 0.832965 0.813356
vt 0.847159 0.812047
vt 0.848626 0.822317
vt 0.833914 0.829044
vt 0.848257 0.832654
vt 0.832584 0.836079
vt 0.846569 0.842453
vt 0.829931 0.842171
vt 0.842965 0.850964
vt 0.857420 0.447164
vt 0.861138 0.460214
vt 0.862581 0.473765
vt 0.862551 0.486925
vt 0.861127 0.499881
vt 0.861255 0.809313
vt 0.862117 0.822204
vt 0.862255 0.835387
vt 0.861091 0.848721
vt 0.856907 0.862107
vt 0.873812 0.439412
vt 0.875527 0.457146
vt 0.875740 0.472537
vt 0.875830 0.487315
vt 0.875184 0.501750
vt 0.875431 0.807359
vt 0.875847 0.821953
vt 0.875716 0.836712
vt 0.875126 0.852594
vt 0.873554 0.868873
vt 0.891864 0.440178
vt 0.889747 0.457090
vt 0.889341 0.472485
vt 0.889102 0.487503
vt 0.889453 0.501753
vt 0.889699 0.807469
vt 0.889039 0.821888
vt 0.889121 0.836795
vt 0.889780 0.852271
vt 0.891396 0.869323
vt 0.908011 0.447677
vt 0.904118 0.460519
vt 0.902524 0.473956
vt 0.902435 0.487116
vt 0.903719 0.500006
vt 0.903675 0.809416
vt 0.902714 0.822253
vt 0.902595 0.835396
vt 0.903796 0.848653
vt 0.908042 0.862179
vt 0.921549 0.458518
vt 0.918250 0.467010
vt 0.916330 0.476790
vt 0.916429 0.487076
vt 0.917818 0.497245
vt 0.917479 0.812066
vt 0.916097 0.822313
vt 0.916529 0.832620
vt 0.918280 0.842387
vt 0.921943 0.850879
vt 0.934695 0.466837
vt 0.932170 0.472971
vt 0.930910 0.480040
vt 0.930957 0.487680
vt 0.932002 0.495830
vt 0.931518 0.813324
vt 0.930580 0.821281
vt 0.930796 0.828919
vt 0.932195 0.835916
vt 0.934906 0.841978
vn 0.000000 0.000000 1.000000
vn 0.000000 0.000000 1.000000
vn 0.000000 0.000000 1.000000
vn 0.000000 0.000000 1.000000
vn 0.000000 1.000000 0.000000
vn 0.000000 1.000000 0.000000
vn 0.000000 1.000000 0.000000
vn 0.000000 1.000000 0.000000
vn 0.000000 0.000000 -1.000000
vn 0.000000 0.000000 -1.000000
vn 0.000000 0.000000 -1.000000
vn 0.000000 0.000000 -1.000000
vn -1.000000 0.000000 0.000000
vn -1.000000 0.000000 0.000000
vn -1.000000 0.000000 0.000000
vn -1.000000 0.000000 0.000000
vn -1.000000 0.000000 0.000000
vn -1.000000 0.000000 0.000000
vn -1.000000 0.000000 0.000000
vn -1.000000 0.000000 0.000000
vn 0.000000 0.000000 1.000000
vn 0.000000 0.000000 1.000000
vn 0.000000 0.000000 1.000000
vn 0.000000 0.000000 1.000000
vn 0.000000 -1.000000 0.000000
vn 0.000000 -1.000000 0.000000
vn 0.000000 -1.000000 0.000000
vn 0.000000 -1.000000 0.000000
vn 0.000000 0.000000 -1.000000
vn 0.000000 0.000000 -1.000000
vn 0.000000 0.000000 -1.000000
vn 0.000000 0.000000 -1.000000
vn 0.000000 0.000000 1.000000
vn 0.000000 0.000000 1.000000
vn 0.000000 0.000000 1.000000
vn 0.000000 0.000000 1.000000
vn 0.000000 1.000000 0.000000
vn 0.000000 1.000000 0.000000
vn 0.000000 1.000000 0.000000
vn 0.000000 1.000000 0.000000
vn 0.000000 0.000000 -1.000000
vn 0.000000 0.000000 -1.000000
vn 0.000000 0.000000 -1.000000
vn 0.000000 0.000000 -1.000000
vn 0.000000 -1.000000 0.000000
vn 0.000000 -1.000000 0.000000
vn 0.000000 -1.000000 0.000000
vn 0.000000 -1.000000 0.000000
vn 1.000000 0.000000 0.000000
vn 1.000000 0.000000 0.000000
vn 1.000000 0.000000 0.000000
vn 1.000000 0.000000 0.000000
vn -1.000000 0.000000 0.000000
vn -1.000000 0.000000 0.000000
vn -1.000000 0.000000 0.000000
vn -1.000000 0.000000 0.000000
vn 0.382683 -0.923880 -0.000000
vn 0.195087 -0.980786 0.000000
vn 0.101227 -0.508908 0.854848
vn 0.195755 -0.472597 0.859262
vn 0.707107 -0.707107 0.000000
vn 0.361710 -0.361710 0.859262
vn 0.923879 -0.382684 0.000000
vn 0.472597 -0.195757 0.859262
vn 0.999945 -0.010476 0.000000
vn 0.616462 -0.006697 0.787356
vn 0.923879 0.382684 -0.000001
vn 0.999945 0.010476 -0.000000
vn 0.616463 0.006697 0.787355
vn 0.472597 0.195756 0.859262
vn 0.707107 0.707107 0.000000
vn 0.361710 0.361711 0.859262
vn 0.382684 0.923879 0.000000
vn 0.195757 0.472598 0.859262
vn 0.195091 0.980785 0.000000
vn 0.101229 0.508908 0.854848
vn -0.069639 0.350104 0.934119
vn -0.134306 0.324241 0.936392
vn -0.248164 0.248163 0.936392
vn -0.324241 0.134306 0.936392
vn -0.234190 0.006257 0.972171
vn -0.234190 -0.006257 0.972171
vn -0.324241 -0.134305 0.936392
vn -0.248163 -0.248164 0.936392
vn -0.134305 -0.324241 0.936392
vn -0.069640 -0.350104 0.934119
vn -0.180615 0.908026 0.377977
vn -0.353297 0.852935 0.384296
vn -0.652809 0.652807 0.384296
vn -0.852934 0.353298 0.384296
vn -0.903239 0.019070 0.428715
vn -0.903239 -0.019070 0.428715
vn -0.852935 -0.353297 0.384297
vn -0.652808 -0.652808 0.384296
vn -0.353297 -0.852935 0.384296
vn -0.180618 -0.908026 0.377976
vn -0.180615 0.908026 -0.377977
vn -0.353297 0.852935 -0.384296
vn -0.652808 0.652807 -0.384296
vn -0.852935 0.353298 -0.384296
vn -0.903239 0.019070 -0.428714
vn -0.903239 -0.019070 -0.428714
vn -0.852935 -0.353297 -0.384296
vn -0.652808 -0.652808 -0.384296
vn -0.353297 -0.852935 -0.384296
vn -0.180618 -0.908026 -0.377976
vn -0.069640 0.350105 -0.934118
vn -0.134305 0.324241 -0.936392
vn -0.248164 0.248164 -0.936392
vn -0.324242 0.134306 -0.936392
vn -0.234191 0.006257 -0.972170
vn -0.234191 -0.006257 -0.972170
vn -0.324242 -0.134305 -0.936392
vn -0.248164 -0.248165 -0.936392
vn -0.134305 -0.324242 -0.936392
vn -0.069640 -0.350105 -0.934118
vn 0.101226 -0.508908 -0.854848
vn 0.195756 -0.472597 -0.859262
vn 0.361710 -0.361710 -0.859262
vn 0.472598 -0.195757 -0.859262
vn 0.616462 -0.006697 -0.787356
vn 0.616462 0.006697 -0.787356
vn 0.472596 0.195756 -0.859263
vn 0.361711 0.361710 -0.859262
vn 0.195757 0.472597 -0.859262
vn 0.101229 0.508908 -0.854848
s off
g polySurface17
usemtl initialShadingGroup
f 1/1/1 2/2/2 4/3/3 3/4/4
f 3/4/5 4/3/6 6/5/7 5/6/8
f 5/6/9 6/5/10 8/7/11 7/8/12
s 1
f 1/9/13 3/10/14 15/11/15 14/12/16
f 3/10/14 5/13/17 16/14/18 15/11/15
f 5/15/17 7/16/19 13/17/20 16/18/18
s off
f 9/19/21 11/20/22 16/21/23 13/22/24
f 11/20/25 12/23/26 15/24/27 16/21/28
f 12/23/29 10/25/30 14/26/31 15/24/32
f 17/27/33 18/28/34 20/29/35 19/30/36
f 19/30/37 20/31/38 22/32/39 21/33/40
f 21/33/41 22/34/42 24/35/43 23/36/44
f 23/36/45 24/37/46 18/38/47 17/27/48
f 18/39/49 24/35/50 22/34/51 20/40/52
f 23/36/53 17/27/54 19/30/55 21/33/56
s 2
f 26/41/57 25/42/58 34/43/59 35/44/60
f 27/45/61 26/41/57 35/44/60 36/46/62
f 28/47/63 27/45/61 36/46/62 37/48/64
f 88/49/65 28/47/63 37/48/64 89/50/66
f 30/51/67 29/52/68 38/53/69 39/54/70
f 31/55/71 30/51/67 39/54/70 40/56/72
f 32/57/73 31/55/71 40/56/72 41/58/74
f 33/59/75 32/57/73 41/58/74 42/60/76
f 35/44/60 34/43/59 43/61/77 44/62/78
f 36/46/62 35/44/60 44/62/78 45/63/79
f 37/48/64 36/46/62 45/63/79 46/64/80
f 89/50/66 37/48/64 46/64/80 94/65/81
f 39/54/70 38/53/69 47/66/82 48/67/83
f 40/56/72 39/54/70 48/67/83 49/68/84
f 41/58/74 40/56/72 49/68/84 50/69/85
f 42/60/76 41/58/74 50/69/85 51/70/86
f 44/62/78 43/61/77 52/71/87 53/72/88
f 45/63/79 44/62/78 53/72/88 54/73/89
f 46/64/80 45/63/79 54/73/89 55/74/90
f 94/65/81 46/64/80 55/74/90 93/75/91
f 48/67/83 47/66/82 56/76/92 57/77/93
f 49/68/84 48/67/83 57/77/93 58/78/94
f 50/69/85 49/68/84 58/78/94 59/79/95
f 51/70/86 50/69/85 59/79/95 60/80/96
f 53/72/88 52/71/87 61/81/97 62/82/98
f 54/73/89 53/72/88 62/82/98 63/83/99
f 55/74/90 54/73/89 63/83/99 64/84/100
f 93/75/91 55/74/90 64/84/100 92/85/101
f 57/77/93 56/76/92 65/86/102 66/87/103
f 58/78/94 57/77/93 66/87/103 67/88/104
f 59/79/95 58/78/94 67/88/104 68/89/105
f 60/80/96 59/79/95 68/89/105 69/90/106
f 62/82/98 61/81/97 70/91/107 71/92/108
f 63/83/99 62/82/98 71/92/108 72/93/109
f 64/84/100 63/83/99 72/93/109 73/94/110
f 92/85/101 64/84/100 73/94/110 91/95/111
f 66/87/103 65/86/102 74/96/112 75/97/113
f 67/88/104 66/87/103 75/97/113 76/98/114
f 68/89/105 67/88/104 76/98/114 77/99/115
f 69/90/106 68/89/105 77/99/115 78/100/116
f 71/92/108 70/91/107 79/101/117 80/102/118
f 72/93/109 71/92/108 80/102/118 81/103/119
f 73/94/110 72/93/109 81/103/119 82/104/120
f 91/95/111 73/94/110 82/104/120 90/105/121
f 75/97/113 74/96/112 83/106/122 84/107/123
f 76/98/114 75/97/113 84/107/123 85/108/124
f 77/99/115 76/98/114 85/108/124 86/109/125
f 78/100/116 77/99/115 86/109/125 87/110/126
f 80/102/118 79/101/117 25/111/58 26/112/57
f 81/103/119 80/102/118 26/112/57 27/113/61
f 82/104/120 81/103/119 27/113/61 28/114/63
f 90/105/121 82/104/120 28/114/63 88/115/65
f 84/107/123 83/106/122 29/116/68 30/117/67
f 85/108/124 84/107/123 30/117/67 31/118/71
f 86/109/125 85/108/124 31/118/71 32/119/73
f 87/110/126 86/109/125 32/119/73 33/120/75
f 38/53/69 29/52/68 88/49/65 89/50/66
f 29/116/68 83/106/122 90/105/121 88/115/65
f 83/106/122 74/96/112 91/95/111 90/105/121
f 74/96/112 65/86/102 92/85/101 91/95/111
f 65/86/102 56/76/92 93/75/91 92/85/101
f 56/76/92 47/66/82 94/65/81 93/75/91
f 47/66/82 38/53/69 89/50/66 94/65/81
