# This file uses centimeters as units for non-parametric coordinates.

mtllib doorchainclose.mtl
g default
v -1.676369 0.000000 0.500000
v 1.676369 0.000000 0.500000
v 1.615933 0.000000 0.902947
v 1.676369 0.000000 0.842511
v 1.317713 0.000000 0.902947
v 1.257277 0.000000 0.842511
v -1.615933 0.000000 0.902948
v -1.676369 0.000000 0.842512
v -1.317713 0.000000 0.902948
v -1.257277 0.000000 0.842512
v 0.000000 2.731581 0.500000
v 0.000000 2.731581 0.842511
v 0.000000 2.671145 0.902947
v 0.000000 2.456094 0.902947
v 0.000000 2.395658 0.842511
v 0.000000 2.395658 0.500000
v -0.275106 2.731581 0.500000
v -0.275106 2.731581 0.842511
v -0.265322 2.671145 0.902947
v -0.216147 2.456094 0.902947
v -0.206330 2.395658 0.842511
v 0.206330 2.395658 0.842511
v 0.216147 2.456094 0.902947
v 0.265322 2.671145 0.902947
v 0.275106 2.731581 0.842511
v 0.275106 2.731581 0.500000
v 1.615933 1.078816 0.902947
v 1.567224 1.541056 0.902947
v 1.627970 1.545961 0.842511
v 1.676369 1.086231 0.842511
v 1.257277 1.086256 0.842511
v 1.209632 1.546065 0.842511
v 1.269770 1.553747 0.902947
v 1.317713 1.091484 0.902947
v -1.676369 1.086231 0.842512
v -1.627969 1.545961 0.842512
v -1.567223 1.541056 0.902948
v -1.615933 1.078816 0.902948
v -1.317713 1.091484 0.902948
v -1.269770 1.553747 0.902948
v -1.209631 1.546065 0.842512
v -1.257277 1.086256 0.842512
v 1.627970 1.545961 0.500000
v 1.676369 1.086231 0.500000
v -1.676369 1.086231 0.500000
v -1.627969 1.545961 0.500000
v 1.256296 2.671145 0.902947
v 1.341160 2.602802 0.902947
v 1.305972 2.731581 0.842511
v 1.390017 2.663546 0.842511
v 0.961996 2.395658 0.842511
v 1.045930 2.327486 0.842511
v 1.010378 2.456094 0.902947
v 1.095087 2.387590 0.902947
v -1.256296 2.671145 0.902948
v -1.341160 2.602802 0.902948
v -1.305972 2.731581 0.842512
v -1.390017 2.663546 0.842512
v -0.961996 2.395658 0.842512
v -1.045930 2.327486 0.842512
v -1.010378 2.456094 0.902948
v -1.095087 2.387590 0.902948
v 1.305972 2.731581 0.500000
v 1.390017 2.663546 0.500000
v -1.390017 2.663546 0.500000
v -1.305972 2.731581 0.500000
v -0.961655 2.395658 0.500000
v -0.206330 2.395658 0.500000
v -1.046001 2.327151 0.500000
v -1.209619 1.546122 0.500000
v -1.257277 1.086198 0.500000
v -1.257277 0.000000 0.500000
v 0.206330 2.395658 0.500000
v 0.961655 2.395658 0.500000
v 1.046001 2.327151 0.500000
v 1.209619 1.546122 0.500000
v 1.257277 1.086197 0.500000
v 1.257277 0.000000 0.500000
vt 0.711398 0.650087
vt 0.741106 0.673178
vt 0.696751 0.720035
vt 0.684963 0.695884
vt 0.657524 0.615494
vt 0.671663 0.626664
vt 0.636873 0.657148
vt 0.621245 0.645006
vt 0.795911 0.720150
vt 0.742818 0.788927
vt 0.570307 0.594562
vt 0.607832 0.564806
vt 0.663574 0.831247
vt 0.623937 0.765874
vt 0.612104 0.749594
vt 0.593909 0.698017
vt 0.583604 0.681094
vt 0.535901 0.627021
vt 0.889290 0.236143
vt 0.881415 0.316172
vt 0.828339 0.321237
vt 0.836842 0.236898
vt 0.904031 0.238008
vt 0.896586 0.316797
vt 0.963627 0.241978
vt 0.956772 0.323217
vt 0.821689 0.235315
vt 0.812982 0.319550
vt 0.752879 0.310123
vt 0.761472 0.230727
vt 0.196390 0.874013
vt 0.270651 0.876304
vt 0.269515 0.933165
vt 0.193107 0.929905
vt 0.196377 0.860085
vt 0.271854 0.862092
vt 0.203202 0.811388
vt 0.282749 0.813219
vt 0.203489 0.797113
vt 0.282935 0.798719
vt 0.206148 0.740593
vt 0.280917 0.741661
vt 0.899548 0.047884
vt 0.914502 0.048708
vt 0.832438 0.044227
vt 0.847380 0.045062
vt 0.019240 0.861665
vt 0.020216 0.847681
vt 0.023656 0.798894
vt 0.024616 0.784911
vt 0.974374 0.052100
vt 0.772519 0.040741
vt 0.015390 0.917688
vt 0.028326 0.728830
vt 0.856763 0.514089
vt 0.862414 0.502589
vt 0.876386 0.511126
vt 0.873230 0.518727
vt 0.794623 0.506410
vt 0.806447 0.480606
vt 0.934061 0.525701
vt 0.926188 0.552015
vt 0.773939 0.498422
vt 0.788543 0.470064
vt 0.718173 0.457554
vt 0.726792 0.447109
vt 0.459498 0.861585
vt 0.448156 0.865902
vt 0.434557 0.811177
vt 0.460681 0.803495
vt 0.461870 0.877884
vt 0.454438 0.880033
vt 0.486689 0.932250
vt 0.461132 0.936006
vt 0.455506 0.782578
vt 0.426721 0.793110
vt 0.411358 0.732498
vt 0.421546 0.724966
vn 0.000000 0.228156 0.973625
vn 0.000000 0.989062 0.147499
vn 0.000000 0.989266 0.146126
vn 0.000000 0.233190 0.972431
vn 0.000000 -0.988706 0.149870
vn 0.000000 -0.198474 0.980106
vn 0.000000 -0.194056 0.980990
vn -0.000000 -0.988496 0.151247
vn 0.000000 1.000000 0.000000
vn 0.000000 1.000000 0.000000
vn 0.000000 -1.000000 0.000000
vn 0.000000 -1.000000 0.000000
vn 0.000000 1.000000 0.000000
vn 0.000000 0.989062 0.147499
vn 0.000000 0.228157 0.973624
vn 0.000000 -0.198474 0.980106
vn 0.000000 -0.988706 0.149870
vn 0.000000 -1.000000 -0.000000
vn 0.166113 0.004717 0.986095
vn 0.186038 0.033315 0.981978
vn -0.149420 -0.026051 0.988431
vn -0.167588 -0.005538 0.985842
vn 0.988968 0.031454 0.144748
vn 0.972996 0.176815 0.148377
vn 0.999510 0.031292 0.000000
vn 0.983917 0.178624 0.000000
vn -0.987959 -0.030137 0.151754
vn -0.974815 -0.165582 0.149392
vn -0.985812 -0.167852 0.000007
vn -0.999525 -0.030801 0.000005
vn -0.988968 0.031454 0.144748
vn -0.972996 0.176815 0.148377
vn -0.983917 0.178624 0.000000
vn -0.999510 0.031292 0.000000
vn -0.166113 0.004717 0.986095
vn -0.186038 0.033315 0.981978
vn 0.167588 -0.005538 0.985842
vn 0.149420 -0.026051 0.988431
vn 0.987959 -0.030136 0.151754
vn 0.974815 -0.165581 0.149392
vn 0.999525 -0.030801 0.000005
vn 0.985812 -0.167852 0.000007
vn 0.165839 0.000000 0.986153
vn 0.989002 0.000000 0.147904
vn -0.988893 0.000000 0.148626
vn -0.166625 0.000000 0.986020
vn -0.989002 0.000000 0.147905
vn -0.165839 0.000000 0.986153
vn 0.166625 0.000000 0.986020
vn 0.988893 0.000000 0.148626
vn 1.000000 0.000000 0.000000
vn -1.000000 0.000000 0.000000
vn -1.000000 0.000000 0.000000
vn 1.000000 0.000000 0.000000
vn 0.022448 0.290565 0.956592
vn 0.398442 0.094811 0.912280
vn 0.958162 0.267977 0.100567
vn 0.057992 0.989298 0.133894
vn -0.007271 -0.133190 0.991064
vn -0.057794 -0.023098 0.998061
vn 0.965043 0.262092 0.000000
vn 0.060909 0.998143 0.000000
vn -0.082652 -0.980162 0.180141
vn -0.942431 -0.265632 0.203132
vn -0.081105 -0.996706 0.000081
vn -0.960021 -0.279929 0.000077
vn -0.022448 0.290565 0.956592
vn -0.398443 0.094811 0.912280
vn 0.057795 -0.023098 0.998061
vn 0.007271 -0.133190 0.991064
vn -0.057992 0.989297 0.133894
vn -0.958162 0.267977 0.100566
vn -0.060909 0.998143 0.000000
vn -0.965043 0.262092 0.000000
vn 0.082652 -0.980162 0.180141
vn 0.942432 -0.265632 0.203132
vn 0.960021 -0.279928 0.000077
vn 0.081105 -0.996706 0.000081
s 1
g polySurface21 polySurface20 pCube1
usemtl initialShadingGroup
f 24/1/1 25/2/2 12/3/3 13/4/4
f 22/5/5 23/6/6 14/7/7 15/8/8
f 23/6/6 24/1/1 13/4/4 14/7/7
f 25/2/2 26/9/9 11/10/10 12/3/3
f 15/8/8 16/11/11 73/12/12 22/5/5
f 12/3/3 11/10/10 17/13/13 18/14/14
f 13/4/4 12/3/3 18/14/14 19/15/15
f 14/7/7 13/4/4 19/15/15 20/16/16
f 15/8/8 14/7/7 20/16/16 21/17/17
f 21/17/17 68/18/18 16/11/11 15/8/8
f 27/19/19 28/20/20 33/21/21 34/22/22
f 28/20/20 27/19/19 30/23/23 29/24/24
f 29/24/24 30/23/23 44/25/25 43/26/26
f 31/27/27 32/28/28 76/29/29 77/30/30
f 32/28/28 31/27/27 34/22/22 33/21/21
f 35/31/31 36/32/32 46/33/33 45/34/34
f 36/32/32 35/31/31 38/35/35 37/36/36
f 37/36/36 38/35/35 39/37/37 40/38/38
f 40/38/38 39/37/37 42/39/39 41/40/40
f 41/40/40 42/39/39 71/41/41 70/42/42
f 3/43/43 4/44/44 30/23/23 27/19/19
f 34/22/22 31/27/27 6/45/45 5/46/46
f 8/47/47 7/48/48 38/35/35 35/31/31
f 9/49/49 10/50/50 42/39/39 39/37/37
f 3/43/43 27/19/19 34/22/22 5/46/46
f 38/35/35 7/48/48 9/49/49 39/37/37
f 2/51/51 44/25/25 30/23/23 4/44/44
f 77/30/30 78/52/52 6/45/45 31/27/27
f 35/31/31 45/34/34 1/53/53 8/47/47
f 72/54/54 71/41/41 42/39/39 10/50/50
f 47/55/55 48/56/56 50/57/57 49/58/58
f 48/56/56 47/55/55 53/59/59 54/60/60
f 49/58/58 50/57/57 64/61/61 63/62/62
f 51/63/63 52/64/64 54/60/60 53/59/59
f 52/64/64 51/63/63 74/65/65 75/66/66
f 55/67/67 56/68/68 62/69/69 61/70/70
f 56/68/68 55/67/67 57/71/71 58/72/72
f 58/72/72 57/71/71 66/73/73 65/74/74
f 59/75/75 60/76/76 69/77/77 67/78/78
f 60/76/76 59/75/75 61/70/70 62/69/69
f 18/14/14 17/13/13 66/73/73 57/71/71
f 19/15/15 18/14/14 57/71/71 55/67/67
f 20/16/16 19/15/15 55/67/67 61/70/70
f 21/17/17 20/16/16 61/70/70 59/75/75
f 67/78/78 68/18/18 21/17/17 59/75/75
f 22/5/5 73/12/12 74/65/65 51/63/63
f 51/63/63 53/59/59 23/6/6 22/5/5
f 47/55/55 24/1/1 23/6/6 53/59/59
f 47/55/55 49/58/58 25/2/2 24/1/1
f 49/58/58 63/62/62 26/9/9 25/2/2
f 28/20/20 29/24/24 50/57/57 48/56/56
f 32/28/28 33/21/21 54/60/60 52/64/64
f 36/32/32 37/36/36 56/68/68 58/72/72
f 40/38/38 41/40/40 60/76/76 62/69/69
f 28/20/20 48/56/56 54/60/60 33/21/21
f 56/68/68 37/36/36 40/38/38 62/69/69
f 29/24/24 43/26/26 64/61/61 50/57/57
f 75/66/66 76/29/29 32/28/28 52/64/64
f 58/72/72 65/74/74 46/33/33 36/32/32
f 70/42/42 69/77/77 60/76/76 41/40/40
g default
v 0.155167 1.541653 0.158677
v -0.155167 1.541653 0.158677
v -0.310334 1.272896 0.158677
v -0.155167 1.004139 0.158677
v 0.155167 1.004139 0.158677
v 0.310334 1.272896 0.158677
v 0.155167 1.541653 0.779344
v -0.155167 1.541653 0.779344
v -0.310334 1.272896 0.779344
v -0.155167 1.004139 0.779344
v 0.155167 1.004139 0.779344
v 0.310334 1.272896 0.779344
v 0.000000 1.272896 0.779344
v -0.961655 2.395658 0.500000
v -1.046000 2.327151 0.500001
v 1.046000 2.327151 0.500000
v 0.961655 2.395658 0.500000
v -1.209619 1.546122 0.500001
v 1.209619 1.546122 0.500000
v -1.257277 1.086198 0.500000
v 1.257277 1.086197 0.500000
v -1.257277 0.000000 0.500000
v 1.257277 0.000000 0.500000
vt 0.038075 0.019077
vt 0.163511 0.019077
vt 0.288947 0.019077
vt 0.414384 0.019077
vt 0.539820 0.019077
vt 0.665256 0.019077
vt 0.790692 0.019077
vt 0.038075 0.254124
vt 0.163511 0.254124
vt 0.288947 0.254124
vt 0.414384 0.254124
vt 0.539820 0.254124
vt 0.665256 0.254124
vt 0.790692 0.254124
vt 0.913107 0.741160
vt 0.784055 0.741160
vt 0.719528 0.852923
vt 0.784055 0.964686
vt 0.913107 0.964686
vt 0.977633 0.852923
vt 0.848581 0.847761
vt 0.098793 0.962084
vt 0.074868 0.942652
vt 0.668283 0.942652
vt 0.644358 0.962084
vt 0.028456 0.721106
vt 0.714695 0.721106
vt 0.014937 0.590644
vt 0.728214 0.590644
vt 0.014937 0.282534
vt 0.728214 0.282534
vn 0.500000 0.866026 0.000000
vn -0.500000 0.866026 0.000000
vn -0.493197 0.854242 0.164399
vn 0.493197 0.854242 0.164399
vn -1.000000 0.000000 0.000000
vn -0.986394 0.000000 0.164399
vn -0.500000 -0.866026 0.000000
vn -0.493197 -0.854242 0.164399
vn 0.500000 -0.866026 0.000000
vn 0.493197 -0.854242 0.164399
vn 1.000000 -0.000000 0.000000
vn 0.986394 -0.000000 0.164399
vn 0.000000 0.000000 1.000000
vn 0.000000 0.000008 1.000000
vn 0.000000 0.000000 1.000000
vn 0.000000 0.000000 1.000000
vn 0.000000 0.000008 1.000000
vn 0.000000 -0.000001 1.000000
vn 0.000000 -0.000001 1.000000
vn 0.000000 -0.000000 1.000000
vn 0.000000 -0.000000 1.000000
vn 0.000000 0.000000 1.000000
vn 0.000000 0.000000 1.000000
s 1
g pCylinder5
usemtl initialShadingGroup
f 79/79/79 80/80/80 86/87/81 85/86/82
f 80/80/80 81/81/83 87/88/84 86/87/81
f 81/81/83 82/82/85 88/89/86 87/88/84
f 82/82/85 83/83/87 89/90/88 88/89/86
f 83/83/87 84/84/89 90/91/90 89/90/88
f 84/84/89 79/85/79 85/92/82 90/91/90
f 85/97/82 86/96/81 91/99/91
f 86/96/81 87/95/84 91/99/91
f 87/95/84 88/94/86 91/99/91
f 88/94/86 89/93/88 91/99/91
f 89/93/88 90/98/90 91/99/91
f 90/98/90 85/97/82 91/99/91
s 2
f 92/100/92 93/101/93 94/102/94 95/103/95
f 93/101/93 96/104/96 97/105/97 94/102/94
f 96/104/96 98/106/98 99/107/99 97/105/97
f 98/106/98 100/108/100 101/109/101 99/107/99
g default
v -0.159524 1.248072 0.608224
v -0.094221 1.167698 0.729466
v -0.160486 1.249184 0.609479
v -0.095183 1.168809 0.730721
v -0.167520 1.254897 0.720308
v -0.088170 1.163196 0.616776
v -0.166609 1.253776 0.721999
v -0.087260 1.162075 0.618467
v -1.432015 0.175754 0.582734
v -1.366713 0.095379 0.703976
v -1.433028 0.176822 0.583988
v -1.367725 0.096447 0.705230
v -1.440333 0.182303 0.694815
v -1.360388 0.091103 0.591297
v -1.439423 0.181184 0.696503
v -1.359479 0.089985 0.592984
v 0.013863 1.313155 0.611709
v -0.030287 1.266027 0.757496
v 0.014356 1.313789 0.612063
v -0.029793 1.266661 0.757850
v 0.036787 1.347369 0.717171
v -0.052867 1.232283 0.652817
v 0.036962 1.347556 0.716593
v -0.052692 1.232470 0.652239
v -1.282956 2.354729 0.555696
v -1.327106 2.307601 0.701482
v -1.282514 2.355405 0.556048
v -1.326664 2.308276 0.701835
v -1.260361 2.389207 0.661143
v -1.349409 2.273635 0.596815
v -1.260186 2.389394 0.660565
v -1.349234 2.273822 0.596238
v 0.151097 1.240525 0.629171
v 0.102766 1.172660 0.765122
v 0.152156 1.241730 0.630149
v 0.103825 1.173865 0.766100
v 0.167417 1.252242 0.740621
v 0.077561 1.149964 0.657621
v 0.166960 1.251600 0.741908
v 0.077104 1.149322 0.658908
v 1.430027 0.178274 0.553573
v 1.381696 0.110409 0.689524
v 1.431137 0.179436 0.554548
v 1.382806 0.111572 0.690498
v 1.446672 0.189723 0.665004
v 1.356218 0.087940 0.582039
v 1.446215 0.189080 0.666290
v 1.355761 0.087298 0.583326
v -0.007014 1.312844 0.552478
v 0.023146 1.266843 0.702134
v -0.007917 1.314248 0.552984
v 0.022243 1.268247 0.702640
v -0.042786 1.353165 0.670799
v 0.051422 1.235492 0.618864
v -0.042703 1.352615 0.671636
v 0.051505 1.234941 0.619700
v 1.290516 2.353136 0.610932
v 1.320677 2.307135 0.760588
v 1.289665 2.354582 0.611441
v 1.319826 2.308581 0.761097
v 1.261582 2.386711 0.693772
v 1.355181 2.268554 0.641825
v 1.261665 2.386160 0.694609
v 1.355264 2.268004 0.642662
vt 1.834754 0.360902
vt 1.834754 0.637536
vt 1.834754 0.360902
vt 1.834754 0.637536
vt 2.086823 0.360902
vt 2.086823 0.637536
vt 2.086823 0.360902
vt 2.086823 0.637536
vt -1.052626 0.360902
vt -1.052626 0.637536
vt -1.052742 0.360902
vt -1.052742 0.637536
vt -0.801290 0.360902
vt -0.799940 0.637536
vt -0.801290 0.360902
vt -0.799940 0.637536
vt -1.052626 0.360902
vt -1.052626 0.637536
vt 1.834754 0.637536
vt 1.834754 0.360902
vt -1.052742 0.637536
vt -1.052742 0.360902
vt 1.834754 0.360902
vt 1.834754 0.637536
vt -0.801290 0.360902
vt -0.799940 0.637536
vt 2.086823 0.637536
vt 2.086823 0.360902
vt -0.799940 0.637536
vt -0.801290 0.360902
vt 2.086823 0.360902
vt 2.086823 0.637536
vt -1.052626 0.360902
vt -1.052626 0.637536
vt 1.834754 0.637536
vt 1.834754 0.360902
vt -1.052742 0.637536
vt -1.052742 0.360902
vt 1.834754 0.360902
vt 1.834754 0.637536
vt -0.801290 0.360902
vt -0.799940 0.637536
vt 2.086823 0.637536
vt 2.086823 0.360902
vt -0.799940 0.637536
vt -0.801290 0.360902
vt 2.086823 0.360902
vt 2.086823 0.637536
vt -1.052626 0.360902
vt -1.052626 0.637536
vt 1.834754 0.637536
vt 1.834754 0.360902
vt -1.052742 0.637536
vt -1.052742 0.360902
vt 1.834754 0.360902
vt 1.834754 0.637536
vt -0.801290 0.360902
vt -0.799940 0.637536
vt 2.086823 0.637536
vt 2.086823 0.360902
vt -0.799940 0.637536
vt -0.801290 0.360902
vt 2.086823 0.360902
vt 2.086823 0.637536
vn 0.497649 -0.575112 -0.649302
vn 0.497649 -0.575112 -0.649302
vn 0.497649 -0.575112 -0.649302
vn 0.497649 -0.575112 -0.649302
vn -0.497648 0.575112 0.649302
vn -0.497648 0.575112 0.649302
vn -0.497648 0.575112 0.649302
vn -0.497648 0.575112 0.649302
vn -0.409554 0.504076 -0.760377
vn -0.409554 0.504076 -0.760377
vn -0.409554 0.504076 -0.760377
vn -0.409554 0.504076 -0.760377
vn 0.409556 -0.504082 0.760372
vn 0.409556 -0.504082 0.760372
vn 0.409556 -0.504082 0.760372
vn 0.409556 -0.504082 0.760372
vn -0.562275 -0.721769 -0.403604
vn -0.562275 -0.721769 -0.403604
vn -0.562275 -0.721769 -0.403604
vn -0.562275 -0.721769 -0.403604
vn 0.562275 0.721769 0.403604
vn 0.562275 0.721769 0.403604
vn 0.562275 0.721769 0.403604
vn 0.562275 0.721769 0.403604
vn 0.276885 0.295569 -0.914316
vn 0.276885 0.295569 -0.914316
vn 0.276885 0.295569 -0.914316
vn 0.276885 0.295569 -0.914316
vn -0.276885 -0.295569 0.914316
vn -0.276885 -0.295569 0.914316
vn -0.276885 -0.295569 0.914316
vn -0.276885 -0.295569 0.914316
vn -0.563543 -0.641449 -0.520541
vn -0.563543 -0.641449 -0.520541
vn -0.563543 -0.641449 -0.520541
vn -0.563543 -0.641449 -0.520541
vn 0.563543 0.641449 0.520541
vn 0.563543 0.641449 0.520541
vn 0.563543 0.641449 0.520541
vn 0.563543 0.641449 0.520541
vn 0.303109 0.425618 -0.852628
vn 0.303109 0.425618 -0.852628
vn 0.303109 0.425618 -0.852628
vn 0.303109 0.425618 -0.852628
vn -0.303110 -0.425618 0.852627
vn -0.303110 -0.425618 0.852627
vn -0.303110 -0.425619 0.852627
vn -0.303110 -0.425619 0.852627
vn 0.596896 -0.725208 -0.343204
vn 0.596896 -0.725208 -0.343204
vn 0.596896 -0.725208 -0.343204
vn 0.596896 -0.725208 -0.343204
vn -0.596895 0.725208 0.343206
vn -0.596895 0.725208 0.343206
vn -0.596895 0.725208 0.343206
vn -0.596895 0.725208 0.343206
vn -0.192098 0.263446 -0.945354
vn -0.192098 0.263446 -0.945354
vn -0.192098 0.263446 -0.945354
vn -0.192098 0.263446 -0.945354
vn 0.192098 -0.263446 0.945354
vn 0.192098 -0.263446 0.945354
vn 0.192098 -0.263446 0.945354
vn 0.192098 -0.263446 0.945354
s off
g pPlane13
usemtl lambert4SG
f 110/118/102 102/110/103 103/111/104 111/119/105
f 113/121/106 105/113/107 104/112/108 112/120/109
f 114/122/110 106/114/111 107/115/112 115/123/113
f 117/125/114 109/117/115 108/116/116 116/124/117
f 126/126/118 118/129/119 119/128/120 127/127/121
f 129/130/122 121/133/123 120/132/124 128/131/125
f 130/134/126 122/137/127 123/136/128 131/135/129
f 133/138/130 125/141/131 124/140/132 132/139/133
f 142/142/134 143/143/135 135/144/136 134/145/137
f 145/146/138 144/147/139 136/148/140 137/149/141
f 146/150/142 147/151/143 139/152/144 138/153/145
f 149/154/146 148/155/147 140/156/148 141/157/149
f 158/158/150 159/159/151 151/160/152 150/161/153
f 161/162/154 160/163/155 152/164/156 153/165/157
f 162/166/158 163/167/159 155/168/160 154/169/161
f 165/170/162 164/171/163 156/172/164 157/173/165
